<?xml version="1.0" encoding="utf-8"?>
<!DOCTYPE svg PUBLIC "-//W3C//DTD SVG 1.1//EN" "http://www.w3.org/Graphics/SVG/1.1/DTD/svg11.dtd">
<svg version="1.1" xmlns="http://www.w3.org/2000/svg" xmlns:xlink="http://www.w3.org/1999/xlink" width="4584" height="590" viewBox="0 0 4584 590">
    <style>
        .primary {
            fill: #ff8adb;
        }
        .secondary {
            fill: #9C86CC;
        }
        .main {
            fill: #000;
        }
        .white {
            fill: #fff;
        }
    </style>
    <svg id="search" width="13" height="13" viewBox="0 0 13 13" x="0" y="0">
        <path class="main" d="M12.682 11.145l-2.824-2.824c-0.015-0.015-0.033-0.026-0.048-0.039 0.556-0.843 0.88-1.852 0.88-2.937 0-2.952-2.393-5.345-5.345-5.345s-5.345 2.393-5.345 5.345c0 2.952 2.393 5.345 5.345 5.345 1.085 0 2.094-0.324 2.937-0.88 0.014 0.016 0.024 0.033 0.039 0.048l2.824 2.824c0.424 0.424 1.112 0.424 1.536 0s0.424-1.112 0-1.536zM5.345 8.837c-1.929 0-3.492-1.563-3.492-3.492s1.563-3.492 3.492-3.492c1.928 0 3.492 1.563 3.492 3.492s-1.563 3.492-3.492 3.492z"></path>
    </svg>
    <svg id="locate" width="13" height="13" viewBox="0 0 13 13" x="50" y="0">
        <path class="main" d="M6.5 0c-2.596 0-4.708 2.112-4.708 4.708 0 3.222 4.213 7.952 4.393 8.151 0.168 0.188 0.463 0.187 0.631 0 0.179-0.2 4.393-4.93 4.393-8.151-0-2.596-2.112-4.708-4.708-4.708zM6.5 7.077c-1.306 0-2.369-1.063-2.369-2.369s1.063-2.369 2.369-2.369 2.369 1.063 2.369 2.369-1.063 2.369-2.369 2.369z"></path>
    </svg>
    <svg id="sun" width="30" height="30" viewBox="0 0 30 30" x="100" y="0">
        <path class="main" d="M15 7.581c-4.091 0-7.42 3.328-7.42 7.419s3.328 7.419 7.419 7.419c4.091 0 7.419-3.328 7.419-7.419s-3.328-7.419-7.419-7.419z"></path>
        <path class="main" d="M15 5.599c0.632 0 1.145-0.513 1.145-1.145v-3.309c0-0.632-0.513-1.145-1.145-1.145s-1.145 0.513-1.145 1.145v3.309c0 0.632 0.513 1.145 1.145 1.145z"></path>
        <path class="main" d="M22.457 8.688c0.293 0 0.586-0.112 0.81-0.335l2.34-2.34c0.447-0.447 0.447-1.172 0-1.619s-1.172-0.447-1.619 0l-2.34 2.339c-0.447 0.447-0.447 1.172 0 1.619 0.224 0.224 0.517 0.336 0.81 0.336z"></path>
        <path class="main" d="M28.855 13.855h-3.309c-0.632 0-1.145 0.513-1.145 1.145s0.513 1.145 1.145 1.145h3.309c0.632 0 1.145-0.513 1.145-1.145s-0.513-1.145-1.145-1.145z"></path>
        <path class="main" d="M23.267 21.648c-0.447-0.447-1.172-0.447-1.619 0s-0.447 1.172 0 1.619l2.34 2.339c0.224 0.224 0.517 0.335 0.81 0.335s0.586-0.112 0.81-0.335c0.447-0.447 0.447-1.172 0-1.619l-2.339-2.339z"></path>
        <path class="main" d="M15 24.401c-0.632 0-1.145 0.513-1.145 1.145v3.309c0 0.632 0.513 1.145 1.145 1.145s1.145-0.513 1.145-1.145v-3.309c0-0.632-0.513-1.145-1.145-1.145z"></path>
        <path class="main" d="M6.733 21.648l-2.34 2.34c-0.447 0.447-0.447 1.172 0 1.619 0.224 0.224 0.517 0.335 0.81 0.335s0.586-0.112 0.81-0.335l2.34-2.339c0.447-0.447 0.447-1.172 0-1.619s-1.172-0.447-1.619-0z"></path>
        <path class="main" d="M5.599 15c0-0.632-0.513-1.145-1.145-1.145h-3.309c-0.632 0-1.145 0.513-1.145 1.145s0.513 1.145 1.145 1.145h3.309c0.632 0 1.145-0.513 1.145-1.145z"></path>
        <path class="main" d="M6.733 8.352c0.224 0.224 0.517 0.335 0.81 0.335s0.586-0.112 0.81-0.335c0.447-0.447 0.447-1.172 0-1.619l-2.339-2.34c-0.447-0.447-1.172-0.447-1.619 0s-0.447 1.172 0 1.619l2.339 2.34z"></path>
    </svg>
    <svg id="sun2" width="30" height="30" viewBox="0 0 30 30" x="100" y="50">
        <path class="white" d="M15 7.581c-4.091 0-7.42 3.328-7.42 7.419s3.328 7.419 7.419 7.419c4.091 0 7.419-3.328 7.419-7.419s-3.328-7.419-7.419-7.419z"></path>
        <path class="white" d="M15 5.599c0.632 0 1.145-0.513 1.145-1.145v-3.309c0-0.632-0.513-1.145-1.145-1.145s-1.145 0.513-1.145 1.145v3.309c0 0.632 0.513 1.145 1.145 1.145z"></path>
        <path class="white" d="M22.457 8.688c0.293 0 0.586-0.112 0.81-0.335l2.34-2.34c0.447-0.447 0.447-1.172 0-1.619s-1.172-0.447-1.619 0l-2.34 2.339c-0.447 0.447-0.447 1.172 0 1.619 0.224 0.224 0.517 0.336 0.81 0.336z"></path>
        <path class="white" d="M28.855 13.855h-3.309c-0.632 0-1.145 0.513-1.145 1.145s0.513 1.145 1.145 1.145h3.309c0.632 0 1.145-0.513 1.145-1.145s-0.513-1.145-1.145-1.145z"></path>
        <path class="white" d="M23.267 21.648c-0.447-0.447-1.172-0.447-1.619 0s-0.447 1.172 0 1.619l2.34 2.339c0.224 0.224 0.517 0.335 0.81 0.335s0.586-0.112 0.81-0.335c0.447-0.447 0.447-1.172 0-1.619l-2.339-2.339z"></path>
        <path class="white" d="M15 24.401c-0.632 0-1.145 0.513-1.145 1.145v3.309c0 0.632 0.513 1.145 1.145 1.145s1.145-0.513 1.145-1.145v-3.309c0-0.632-0.513-1.145-1.145-1.145z"></path>
        <path class="white" d="M6.733 21.648l-2.34 2.34c-0.447 0.447-0.447 1.172 0 1.619 0.224 0.224 0.517 0.335 0.81 0.335s0.586-0.112 0.81-0.335l2.34-2.339c0.447-0.447 0.447-1.172 0-1.619s-1.172-0.447-1.619-0z"></path>
        <path class="white" d="M5.599 15c0-0.632-0.513-1.145-1.145-1.145h-3.309c-0.632 0-1.145 0.513-1.145 1.145s0.513 1.145 1.145 1.145h3.309c0.632 0 1.145-0.513 1.145-1.145z"></path>
        <path class="white" d="M6.733 8.352c0.224 0.224 0.517 0.335 0.81 0.335s0.586-0.112 0.81-0.335c0.447-0.447 0.447-1.172 0-1.619l-2.339-2.34c-0.447-0.447-1.172-0.447-1.619 0s-0.447 1.172 0 1.619l2.339 2.34z"></path>
    </svg>
    <svg id="snow" width="30" height="30" viewBox="0 0 30 30" x="150" y="0">
        <path class="main" d="M28.11 7.561l-1.341-0.793-3.659 1.951v-2.622l-0.976-0.549-0.915 0.549v4.085l-2.5 1.28v-2.805l-2.5 1.402v-2.622l3.78-1.89v-1.28l-1.341-0.732-2.439 1.28v-3.963l-1.22-0.854-1.22 0.854v3.963l-2.134-1.28-1.037 0.671v1.402l3.171 1.829v2.622l-2.5-1.341v2.744l-2.317-1.341 0.061-3.841-1.22-0.732-0.915 0.732v2.5l-3.537-1.951-1.463 0.671v1.585l3.476 1.89-2.256 1.28v1.402l1.28 0.61 3.232-1.89 2.256 1.28-2.256 1.402 2.317 1.341h0.061l-2.256 1.341-3.293-1.951-1.341 0.732v1.463l2.317 1.098-3.537 2.012v1.585l1.524 0.61 3.476-1.951v2.5l0.854 0.671 1.037-0.732v-3.78l2.5-1.28v2.744l2.5-1.524v2.622l-3.171 1.829v1.402l1.037 0.671 2.134-1.28v3.963l1.22 0.854 1.22-0.854v-3.963l2.134 1.28 1.037-0.549v-1.524l-3.171-1.829v-2.622l2.5 1.402v-2.561l2.5 1.341v3.78l0.976 0.671 0.915-0.671v-2.5l3.415 1.89 1.585-0.671v-1.524l-3.293-2.012 2.073-1.159v-1.341l-1.159-0.732-3.354 1.829-2.378-1.22 2.317-1.341-2.195-1.402 2.256-1.463 3.354 1.951 1.159-0.61v-1.402l-2.195-1.22 3.415-1.951v-1.463zM16.22 16.89h-2.195l-1.159-1.829 1.098-1.951h2.195l1.037 1.951-0.976 1.829z"></path>
    </svg>
    <svg id="snow2" width="30" height="30" viewBox="0 0 30 30" x="150" y="50">
        <path class="white" d="M28.11 7.561l-1.341-0.793-3.659 1.951v-2.622l-0.976-0.549-0.915 0.549v4.085l-2.5 1.28v-2.805l-2.5 1.402v-2.622l3.78-1.89v-1.28l-1.341-0.732-2.439 1.28v-3.963l-1.22-0.854-1.22 0.854v3.963l-2.134-1.28-1.037 0.671v1.402l3.171 1.829v2.622l-2.5-1.341v2.744l-2.317-1.341 0.061-3.841-1.22-0.732-0.915 0.732v2.5l-3.537-1.951-1.463 0.671v1.585l3.476 1.89-2.256 1.28v1.402l1.28 0.61 3.232-1.89 2.256 1.28-2.256 1.402 2.317 1.341h0.061l-2.256 1.341-3.293-1.951-1.341 0.732v1.463l2.317 1.098-3.537 2.012v1.585l1.524 0.61 3.476-1.951v2.5l0.854 0.671 1.037-0.732v-3.78l2.5-1.28v2.744l2.5-1.524v2.622l-3.171 1.829v1.402l1.037 0.671 2.134-1.28v3.963l1.22 0.854 1.22-0.854v-3.963l2.134 1.28 1.037-0.549v-1.524l-3.171-1.829v-2.622l2.5 1.402v-2.561l2.5 1.341v3.78l0.976 0.671 0.915-0.671v-2.5l3.415 1.89 1.585-0.671v-1.524l-3.293-2.012 2.073-1.159v-1.341l-1.159-0.732-3.354 1.829-2.378-1.22 2.317-1.341-2.195-1.402 2.256-1.463 3.354 1.951 1.159-0.61v-1.402l-2.195-1.22 3.415-1.951v-1.463zM16.22 16.89h-2.195l-1.159-1.829 1.098-1.951h2.195l1.037 1.951-0.976 1.829z"></path>
    </svg>
    <svg id="dblarrow" width="40" height="27" viewBox="0 0 40 27" x="250" y="0">
        <path class="main" d="M28.053 1.954l-1.757 1.757-1.757-1.757 1.757-1.757 1.757 1.757z"></path>
        <path class="main" d="M31.575 5.468l-1.757 1.757-1.757-1.757 1.757-1.757 1.757 1.757z"></path>
        <path class="main" d="M36.085 13.498l-11.544 11.544 1.757 1.757 13.301-13.301-6.274-6.274-1.757 1.757z"></path>
        <path class="main" d="M13.352 23.289l1.757 1.757-1.757 1.757-1.757-1.757 1.757-1.757z"></path>
        <path class="main" d="M3.572 13.498l11.544-11.544-1.757-1.757-13.301 13.301 6.274 6.274 1.757-1.757z"></path>
        <path class="main" d="M8.084 21.533l1.757-1.757 1.757 1.757-1.757 1.757-1.757-1.757z"></path>
    </svg>
    <svg id="fb" width="20" height="20" viewBox="0 0 20 20" x="350" y="0">
        <path class="main" d="M5.271 10.652h2.192v9.025c0 0.178 0.144 0.323 0.323 0.323h3.717c0.178 0 0.323-0.144 0.323-0.323v-8.983h2.52c0.164 0 0.302-0.123 0.32-0.286l0.383-3.323c0.011-0.091-0.018-0.183-0.080-0.252s-0.149-0.108-0.241-0.108h-2.903v-2.083c0-0.628 0.338-0.946 1.005-0.946 0.095 0 1.898 0 1.898 0 0.178 0 0.323-0.144 0.323-0.323v-3.050c0-0.178-0.144-0.323-0.323-0.323h-2.616c-0.018-0.001-0.059-0.002-0.12-0.002-0.454 0-2.031 0.089-3.278 1.236-1.381 1.27-1.189 2.792-1.143 3.055v2.436h-2.301c-0.178 0-0.323 0.144-0.323 0.323v3.28c0 0.178 0.144 0.323 0.323 0.323z"></path>
    </svg>
    <svg id="vk" width="20" height="20" viewBox="0 0 20 20" x="400" y="0">
        <path class="main" d="M19.894 14.6c-0.024-0.052-0.047-0.095-0.068-0.13-0.347-0.625-1.010-1.392-1.989-2.301l-0.021-0.021-0.010-0.010-0.010-0.010h-0.011c-0.444-0.423-0.726-0.708-0.843-0.854-0.216-0.278-0.264-0.559-0.146-0.844 0.083-0.215 0.396-0.67 0.937-1.364 0.285-0.368 0.51-0.663 0.677-0.885 1.201-1.597 1.722-2.617 1.562-3.061l-0.062-0.104c-0.042-0.063-0.149-0.12-0.323-0.172s-0.396-0.061-0.667-0.026l-2.999 0.021c-0.049-0.017-0.118-0.016-0.208 0.005s-0.135 0.031-0.135 0.031l-0.052 0.026-0.041 0.031c-0.035 0.021-0.073 0.057-0.115 0.109s-0.076 0.113-0.104 0.182c-0.327 0.84-0.698 1.621-1.114 2.343-0.257 0.43-0.493 0.804-0.708 1.119s-0.396 0.548-0.541 0.698c-0.146 0.149-0.278 0.269-0.396 0.359s-0.208 0.129-0.271 0.115c-0.063-0.014-0.121-0.028-0.177-0.042-0.097-0.063-0.175-0.148-0.234-0.255s-0.099-0.243-0.12-0.406c-0.021-0.163-0.033-0.304-0.036-0.422s-0.002-0.285 0.005-0.5c0.007-0.215 0.010-0.361 0.010-0.437 0-0.264 0.005-0.55 0.015-0.859s0.019-0.554 0.026-0.734c0.007-0.181 0.010-0.371 0.010-0.573s-0.012-0.359-0.036-0.474c-0.024-0.114-0.061-0.226-0.109-0.333s-0.12-0.191-0.213-0.25c-0.094-0.059-0.21-0.106-0.349-0.141-0.368-0.083-0.837-0.128-1.406-0.135-1.291-0.014-2.121 0.070-2.489 0.25-0.146 0.076-0.278 0.18-0.396 0.312-0.125 0.153-0.142 0.236-0.052 0.25 0.417 0.062 0.712 0.212 0.885 0.448l0.063 0.125c0.049 0.090 0.097 0.25 0.146 0.479s0.080 0.482 0.094 0.76c0.035 0.507 0.035 0.941 0 1.302s-0.068 0.642-0.099 0.843-0.078 0.364-0.141 0.489c-0.063 0.125-0.104 0.201-0.125 0.229s-0.038 0.045-0.052 0.052c-0.090 0.035-0.184 0.052-0.281 0.052s-0.215-0.049-0.354-0.146c-0.139-0.097-0.283-0.231-0.432-0.401s-0.318-0.408-0.505-0.713c-0.187-0.305-0.382-0.666-0.583-1.083l-0.167-0.302c-0.104-0.194-0.246-0.477-0.427-0.849s-0.34-0.731-0.479-1.078c-0.055-0.146-0.139-0.257-0.25-0.333l-0.052-0.031c-0.035-0.028-0.090-0.057-0.167-0.089s-0.156-0.054-0.24-0.068l-2.853 0.021c-0.292 0-0.489 0.066-0.594 0.198l-0.042 0.062c-0.021 0.035-0.031 0.090-0.031 0.167s0.021 0.17 0.063 0.281c0.417 0.979 0.869 1.923 1.359 2.832s0.915 1.642 1.276 2.197c0.361 0.555 0.729 1.080 1.104 1.572s0.623 0.809 0.744 0.948c0.122 0.139 0.217 0.243 0.286 0.312l0.26 0.25c0.167 0.167 0.411 0.366 0.734 0.599s0.68 0.462 1.073 0.688c0.392 0.225 0.849 0.409 1.369 0.552s1.027 0.2 1.52 0.172h1.198c0.243-0.021 0.427-0.097 0.552-0.229l0.041-0.052c0.028-0.041 0.054-0.106 0.078-0.192s0.036-0.182 0.036-0.286c-0.007-0.298 0.016-0.567 0.068-0.807s0.111-0.42 0.177-0.541c0.066-0.121 0.141-0.224 0.224-0.307s0.143-0.134 0.177-0.151c0.035-0.017 0.062-0.029 0.083-0.036 0.167-0.056 0.363-0.002 0.589 0.162s0.437 0.365 0.635 0.604c0.198 0.24 0.436 0.508 0.713 0.807s0.521 0.521 0.729 0.667l0.208 0.125c0.139 0.083 0.32 0.16 0.542 0.229s0.416 0.087 0.583 0.052l2.666-0.042c0.264 0 0.469-0.044 0.614-0.13s0.232-0.182 0.26-0.286c0.028-0.104 0.029-0.222 0.005-0.354s-0.049-0.224-0.073-0.276z"></path>
    </svg>
    <svg id="inst" width="20" height="20" viewBox="0 0 20 20" x="450" y="0">
        <path class="main" d="M2.568 0.001h14.865c1.412 0 2.567 1.155 2.567 2.567v14.865c0 1.412-1.155 2.566-2.567 2.566h-14.865c-1.412 0-2.568-1.154-2.568-2.566v-14.865c0-1.412 1.156-2.567 2.568-2.567zM14.57 2.222c-0.496 0-0.9 0.406-0.9 0.902v2.154c0 0.496 0.404 0.901 0.9 0.901h2.26c0.495 0 0.9-0.405 0.9-0.901v-2.154c0-0.496-0.405-0.902-0.9-0.902 0 0-2.26 0-2.26 0zM17.739 8.458h-1.76c0.167 0.545 0.257 1.12 0.257 1.717 0 3.325-2.784 6.023-6.218 6.023s-6.217-2.697-6.217-6.023c0-0.598 0.091-1.172 0.257-1.717h-1.836v8.449c0 0.438 0.357 0.793 0.794 0.793h13.927c0.438 0 0.794-0.356 0.794-0.793v-8.449zM10.019 6.065c-2.217 0-4.016 1.742-4.016 3.893 0 2.148 1.799 3.892 4.016 3.892 2.219 0 4.017-1.743 4.017-3.892 0-2.151-1.799-3.893-4.017-3.893z"></path>
    </svg>
    <svg id="yt" width="20" height="20" viewBox="0 0 20 20" x="500" y="0">
        <path class="main" d="M18.149 10.125c-0.207-0.898-0.941-1.56-1.825-1.659-2.093-0.234-4.212-0.235-6.321-0.234-2.11-0.001-4.229 0-6.322 0.234-0.884 0.099-1.618 0.761-1.824 1.659-0.294 1.279-0.298 2.674-0.298 3.991s0 2.712 0.294 3.991c0.206 0.898 0.94 1.56 1.824 1.659 2.093 0.234 4.212 0.235 6.322 0.234 2.11 0.001 4.228 0 6.322-0.234 0.884-0.099 1.618-0.761 1.824-1.659 0.294-1.279 0.296-2.674 0.296-3.991s0.002-2.712-0.292-3.991zM6.374 11.116h-1.222v6.493h-1.135v-6.493h-1.2v-1.064h3.557v1.064zM9.457 17.61h-1.021v-0.614c-0.406 0.465-0.791 0.692-1.166 0.692-0.329 0-0.555-0.133-0.657-0.418-0.056-0.17-0.090-0.44-0.090-0.837v-4.452h1.020v4.145c0 0.239 0 0.363 0.009 0.397 0.024 0.158 0.102 0.239 0.239 0.239 0.205 0 0.419-0.158 0.645-0.478v-4.303h1.021l0 5.631zM13.333 15.92c0 0.521-0.035 0.896-0.103 1.135-0.136 0.419-0.409 0.633-0.815 0.633-0.363 0-0.713-0.202-1.055-0.623v0.546h-1.020v-7.557h1.020v2.468c0.33-0.406 0.679-0.611 1.055-0.611 0.406 0 0.679 0.214 0.815 0.635 0.069 0.227 0.103 0.599 0.103 1.132v2.242zM17.183 14.98h-2.040v0.998c0 0.521 0.17 0.781 0.521 0.781 0.251 0 0.397-0.137 0.456-0.409 0.009-0.055 0.023-0.282 0.023-0.691h1.041v0.149c0 0.329-0.013 0.555-0.022 0.657-0.034 0.226-0.114 0.431-0.238 0.611-0.283 0.409-0.701 0.611-1.234 0.611s-0.94-0.192-1.235-0.577c-0.216-0.282-0.328-0.726-0.328-1.324v-1.972c0-0.602 0.099-1.042 0.315-1.327 0.295-0.385 0.701-0.577 1.222-0.577 0.512 0 0.918 0.192 1.204 0.577 0.214 0.285 0.316 0.725 0.316 1.327v1.166h-0z"></path>
        <path class="main" d="M15.655 12.829c-0.341 0-0.512 0.26-0.512 0.781v0.521h1.020v-0.521c-0-0.521-0.171-0.781-0.508-0.781z"></path>
        <path class="main" d="M11.869 12.829c-0.168 0-0.338 0.079-0.509 0.248v3.432c0.17 0.171 0.341 0.251 0.509 0.251 0.294 0 0.444-0.251 0.444-0.76v-2.403c0-0.508-0.15-0.768-0.444-0.768z"></path>
        <path class="main" d="M12.439 7.714c0.376 0 0.767-0.228 1.178-0.699v0.621h1.031v-5.69h-1.031v4.349c-0.228 0.323-0.445 0.483-0.651 0.483-0.138 0-0.219-0.082-0.242-0.242-0.013-0.034-0.013-0.159-0.013-0.401v-4.189h-1.028v4.499c0 0.402 0.034 0.674 0.091 0.846 0.104 0.288 0.332 0.423 0.664 0.423z"></path>
        <path class="main" d="M5.261 4.543v3.093h1.143v-3.093l1.375-4.543h-1.156l-0.78 2.999-0.812-2.999h-1.203c0.241 0.708 0.492 1.419 0.733 2.128 0.367 1.065 0.596 1.868 0.699 2.416z"></path>
        <path class="main" d="M9.312 7.714c0.517 0 0.918-0.194 1.203-0.583 0.216-0.285 0.32-0.733 0.32-1.338v-1.993c0-0.608-0.103-1.053-0.32-1.34-0.285-0.389-0.686-0.584-1.203-0.584-0.514 0-0.915 0.194-1.201 0.584-0.219 0.287-0.323 0.732-0.323 1.34v1.993c0 0.605 0.104 1.053 0.323 1.338 0.285 0.388 0.687 0.583 1.201 0.583zM8.82 3.594c0-0.526 0.16-0.789 0.492-0.789s0.492 0.262 0.492 0.789v2.394c0 0.526-0.159 0.79-0.492 0.79s-0.492-0.263-0.492-0.79v-2.394z"></path>
    </svg>
    <svg id="play" width="80" height="80" viewBox="0 0 80 80" x="550" y="0">
        <path fill="#cc1612" d="M40 0c-22.094 0-40 17.906-40 40s17.906 40 40 40 40-17.906 40-40-17.906-40-40-40zM53.828 42.109l-20 12.5c-0.406 0.25-0.859 0.375-1.328 0.375-0.422 0-0.828-0.109-1.219-0.313-0.797-0.438-1.281-1.281-1.281-2.188v-25c0-0.906 0.5-1.75 1.281-2.188 0.797-0.438 1.766-0.422 2.531 0.063l20 12.5c0.734 0.453 1.172 1.266 1.172 2.125s-0.422 1.672-1.156 2.125z"></path>
    </svg>
    <!--<svg id="XXX" width="XXX" height="XXX" viewBox="0 0 XXX XXX" x="XXX" y="0"></svg>-->
</svg>
