<svg xmlns="http://www.w3.org/2000/svg" width="7.969" height="13.969" viewBox="0 0 7.969 13.969">
  <defs>
    <style>
      .cls-1 {
        fill: #929292;
        fill-rule: evenodd;
      }
    </style>
  </defs>
  <path id="Icon" class="cls-1" d="M586.67,46.109L580.235,52.4a0.8,0.8,0,0,0,0,1.155l6.435,6.295a0.424,0.424,0,0,0,.591,0l0.591-.578a0.4,0.4,0,0,0,0-.578l-5.55-5.428a0.4,0.4,0,0,1,0-.578l5.55-5.428a0.4,0.4,0,0,0,0-.578l-0.591-.578a0.424,0.424,0,0,0-.591,0" transform="translate(-580 -46)"/>
</svg>
