<svg xmlns="http://www.w3.org/2000/svg" width="12.97" height="12.969" viewBox="0 0 12.97 12.969">
  <defs>
    <style>
      .cls-1 {
        fill: #929292;
        fill-rule: evenodd;
      }
    </style>
  </defs>
  <path id="Icon" class="cls-1" d="M1338.49,47.312l-4.58,4.572a0.47,0.47,0,0,1-.67,0l-4.74-4.741a0.482,0.482,0,0,0-.68,0l-0.68.677a0.492,0.492,0,0,0,0,.677l4.74,4.741a0.474,0.474,0,0,1,0,.677l-4.57,4.571a0.474,0.474,0,0,0,0,.677l0.68,0.677a0.482,0.482,0,0,0,.68,0l4.57-4.571a0.47,0.47,0,0,1,.67,0l4.41,4.4a0.47,0.47,0,0,0,.67,0l0.68-.677a0.474,0.474,0,0,0,0-.677l-4.4-4.4a0.474,0.474,0,0,1,0-.677l4.57-4.571a0.474,0.474,0,0,0,0-.677l-0.68-.678a0.47,0.47,0,0,0-.67,0" transform="translate(-1327.03 -47.031)"/>
</svg>
