<svg xmlns="http://www.w3.org/2000/svg" width="8" height="14" viewBox="0 0 8 14">
  <defs>
    <style>
      .cls-1 {
        fill: #929292;
        fill-rule: evenodd;
      }
    </style>
  </defs>
  <path id="Icon" class="cls-1" d="M1333.3,2279.89l6.46-6.31a0.8,0.8,0,0,0,0-1.16l-6.46-6.3a0.405,0.405,0,0,0-.59,0l-0.59.57a0.394,0.394,0,0,0,0,.58l5.57,5.44a0.41,0.41,0,0,1,0,.58l-5.57,5.44a0.394,0.394,0,0,0,0,.58l0.59,0.58a0.423,0.423,0,0,0,.59,0" transform="translate(-1332.03 -2266.03)"/>
</svg>
