<!-- Generated by IcoMoon.io -->
<svg version="1.1" xmlns="http://www.w3.org/2000/svg" width="270" height="27" viewBox="0 0 270 27">
<title>logo</title>
<path fill="#000000" d="M41.531 9.316l8.486 2.77c0 0-8.545 8.84-9.724 10.077 1.709 0 9.37 0 9.37 0 7.013 0 8.015-0.943 12.788-6.129 0 0 1.65-1.768 1.65-1.709 0 0 3.595-3.89 4.597-4.95-1.827-0.059-27.168-0.059-27.168-0.059z"></path>
<path fill="#000" d="M72.942 4.896c-0.236 0.236-3.3 3.359-4.302 4.42 1.709 0 9.017 0 9.429 0 0.236-0.236 3.3-3.359 4.302-4.42-1.65 0-9.017 0-9.429 0z"></path>
<path fill="#000" d="M13.715 4.896c-1.709 0-9.017 0-9.429 0-0.236 0.236-3.3 3.359-4.302 4.42 1.709 0 9.017 0 9.429 0 0.236-0.295 3.3-3.418 4.302-4.42z"></path>
<path fill="#000" d="M19.019 13.795l-12.14 13.024h28.995l4.42-4.715h-13.554z"></path>
<path fill="#000" d="M32.927 13.205l12.081-13.024h-26.932l-4.361 4.715h11.433z"></path>
<path fill="#000" d="M131.58 12.203l-6.777 7.308h17.208l6.777-7.308h-0.53z"></path>
<path fill="#000" d="M105.65 8.137h-19.33l-2.593 2.77h24.869z"></path>
<path fill="#000" d="M253.099 12.203c0 0.295-0.059 0.589-0.354 0.884l-1.473 1.827c-1.002 1.179-3.948 2.122-6.6 2.004-2.593-0.118-3.89-1.12-2.947-2.298l1.473-1.827c0.177-0.177 0.354-0.354 0.589-0.53h-16.737c-0.118 0.118-0.236 0.177-0.295 0.295-0.059 0.059-0.177 0.177-0.236 0.236l-0.059 0.059c-0.059 0.059-0.177 0.177-0.236 0.236l-0.059 0.059c-0.059 0.059-0.118 0.177-0.236 0.236l-0.059 0.059c-0.059 0.059-0.118 0.177-0.177 0.236l-0.059 0.059c-0.059 0.059-0.118 0.177-0.177 0.236 0 0 0 0.059-0.059 0.059-0.059 0.059-0.118 0.177-0.177 0.236 0 0 0 0.059-0.059 0.059-0.059 0.059-0.118 0.177-0.118 0.295v0.059c-0.059 0.118-0.059 0.177-0.118 0.295v0c-0.295 0.707-0.295 1.414 0.059 2.063 0 0 0 0 0 0.059 0.059 0.118 0.177 0.236 0.236 0.295 1.709 1.886 13.437 2.063 18.682 2.063s17.974-0.648 20.98-2.357c2.416-1.355 4.42-3.123 4.656-4.95v0 0 0 0l-16.442 0.059z"></path>
<path fill="#000" d="M269.482 10.848c0-0.059-0.059-0.059-0.059-0.118l-0.059-0.118c-1.238-2.122-7.308-2.475-19.624-2.475-11.315 0-18.387 1.061-20.921 2.77h40.722c-0.059 0-0.059-0.059-0.059-0.059z"></path>
<path fill="#000" d="M82.489 12.203l-6.777 7.308h17.208l5.127-5.481 5.127 5.481h17.149l6.836-7.308z"></path>
<path fill="#000" d="M164.523 12.203l-6.483 7.013-0.295 0.295h17.208l4.832-5.127-8.545-2.18z"></path>
<path fill="#000" d="M197.408 12.203l-6.777 7.308h17.208l4.832-5.127-8.545-2.18z"></path>
<path fill="#000" d="M128.339 10.907l2.593-2.77h-17.208l-2.593 2.77z"></path>
<path fill="#000" d="M152.147 8.137h-16.737l-2.593 2.77h17.208l2.593-2.77h-0.059z"></path>
<path fill="#000" d="M225.99 10.907l2.593-2.77h-71.485l-2.593 2.77h71.426z"></path>
</svg>
