<?xml version="1.0" encoding="UTF-8" standalone="no"?>
<svg
   xmlns:dc="http://purl.org/dc/elements/1.1/"
   xmlns:cc="http://creativecommons.org/ns#"
   xmlns:rdf="http://www.w3.org/1999/02/22-rdf-syntax-ns#"
   xmlns:svg="http://www.w3.org/2000/svg"
   xmlns="http://www.w3.org/2000/svg"
   xmlns:sodipodi="http://sodipodi.sourceforge.net/DTD/sodipodi-0.dtd"
   xmlns:inkscape="http://www.inkscape.org/namespaces/inkscape"
   width="17"
   height="16"
   viewBox="0 0 17 16"
   version="1.1"
   id="svg4541"
   sodipodi:docname="star.svg"
   inkscape:version="0.92.1 r15371">
  <metadata
     id="metadata4547">
    <rdf:RDF>
      <cc:Work
         rdf:about="">
        <dc:format>image/svg+xml</dc:format>
        <dc:type
           rdf:resource="http://purl.org/dc/dcmitype/StillImage" />
        <dc:title></dc:title>
      </cc:Work>
    </rdf:RDF>
  </metadata>
  <defs
     id="defs4545" />
  <sodipodi:namedview
     pagecolor="#ffffff"
     bordercolor="#666666"
     borderopacity="1"
     objecttolerance="10"
     gridtolerance="10"
     guidetolerance="10"
     inkscape:pageopacity="0"
     inkscape:pageshadow="2"
     inkscape:window-width="1920"
     inkscape:window-height="1017"
     id="namedview4543"
     showgrid="false"
     inkscape:zoom="14.75"
     inkscape:cx="-3.7033898"
     inkscape:cy="8"
     inkscape:window-x="-8"
     inkscape:window-y="-8"
     inkscape:window-maximized="1"
     inkscape:current-layer="svg4541" />
  <path
     d="M 16.017701,5.4946697 11.482803,5.0683617 A 0.78374983,0.78561098 0 0 1 10.833714,4.591557 L 9.2071183,0.68098167 c -0.2596352,-0.64480308 -1.1819218,-0.64480308 -1.4425259,0 L 6.1554348,4.591557 A 0.76728043,0.76910247 0 0 1 5.5053778,5.0683617 L 0.96951042,5.4946697 A 0.77503074,0.77687118 0 0 0 0.52677412,6.8493388 L 3.9446597,9.830582 a 0.76534285,0.7671603 0 0 1 0.247041,0.761334 L 3.164785,14.772454 c -0.1550061,0.658398 0.5589909,1.200265 1.1567334,0.851645 l 3.7821499,-2.206314 a 0.79246893,0.79435079 0 0 1 0.792469,0 l 3.7821497,2.206314 a 0.77987468,0.78172662 0 0 0 1.156734,-0.851645 L 12.820699,10.591916 A 0.76534285,0.7671603 0 0 1 13.06774,9.830582 l 3.417885,-2.9812432 c 0.494083,-0.4515563 0.20829,-1.2905772 -0.467924,-1.3546691 z"
     id="path4539"
     style="fill:#ffffff;fill-opacity:1;fill-rule:nonzero;stroke:#eb373b;stroke-width:0.38797522;stroke-miterlimit:4;stroke-dasharray:none;stroke-opacity:1"
     inkscape:connector-curvature="0" />
</svg>
