<?xml version="1.0" encoding="UTF-8"?>
<svg width="24px" height="24px" viewBox="0 0 24 24" fill='black' version="1.1" xmlns="http://www.w3.org/2000/svg" xmlns:xlink="http://www.w3.org/1999/xlink">
    <!-- Generator: Sketch 47.1 (45422) - http://www.bohemiancoding.com/sketch -->
    <title>sun copy</title>
    <desc>Created with Sketch.</desc>
    <defs></defs>
    <g id="Symbols" stroke="none" stroke-width="1" fill="none" fill-rule="evenodd">
        <g id="main-content" transform="translate(-702.000000, -107.000000)" fill-rule="nonzero" fill="#EB373B">
            <g id="sun-copy" transform="translate(702.000000, 107.000000)">
                <path d="M12,6 C8.69153921,6 6,8.69183168 6,12 C6,15.3081683 8.69153921,18 12,18 C15.3079303,18 18,15.3086987 18,12 C18,8.69130127 15.3079303,6 12,6 Z" id="Shape"></path>
                <g id="Group">
                    <path d="M11.7808696,4.14469565 C11.1448696,4.14469565 10.6293913,3.62921739 10.6293913,2.99373913 L10.6293913,1.15147826 C10.6293913,0.515478261 11.1448696,0 11.7808696,0 C12.4168696,0 12.9323478,0.515478261 12.9323478,1.15147826 L12.9323478,2.99373913 C12.9323478,3.62921739 12.4163478,4.14469565 11.7808696,4.14469565 Z" id="Shape"></path>
                    <path d="M11.7808696,19.4165217 C11.1448696,19.4165217 10.6293913,19.932 10.6293913,20.568 L10.6293913,22.4097391 C10.6293913,23.0462609 11.1448696,23.5617391 11.7808696,23.5617391 C12.4168696,23.5617391 12.9323478,23.0462609 12.9323478,22.4097391 L12.9323478,20.568 C12.9323478,19.932 12.4163478,19.4165217 11.7808696,19.4165217 Z" id="Shape"></path>
                    <path d="M17.1798261,6.3813913 C16.7306087,5.93165217 16.7306087,5.20278261 17.1798261,4.75304348 L18.4826087,3.45026087 C18.9318261,3.00104348 19.6612174,3.00104348 20.1109565,3.45026087 C20.5606957,3.9 20.5606957,4.6293913 20.1109565,5.0786087 L18.8081739,6.3813913 C18.3589565,6.83113043 17.630087,6.83113043 17.1798261,6.3813913 Z" id="Shape"></path>
                    <path d="M6.3813913,17.1808696 C5.93165217,16.7306087 5.20278261,16.7306087 4.75304348,17.1808696 L3.45026087,18.4831304 C3.00104348,18.9323478 3.00052174,19.6622609 3.45026087,20.1114783 C3.9,20.5606957 4.6293913,20.5606957 5.0786087,20.1114783 L6.3813913,18.8081739 C6.83113043,18.3589565 6.83113043,17.6295652 6.3813913,17.1808696 Z" id="Shape"></path>
                    <path d="M19.4165217,11.7808696 C19.4165217,11.1448696 19.932,10.6293913 20.568,10.6293913 L22.4102609,10.6293913 C23.0462609,10.6293913 23.5617391,11.1448696 23.5617391,11.7808696 C23.5617391,12.4168696 23.0462609,12.9318261 22.4102609,12.9318261 L20.568,12.9318261 C19.932,12.9318261 19.4165217,12.4168696 19.4165217,11.7808696 Z" id="Shape"></path>
                    <path d="M4.14469565,11.7808696 C4.14469565,11.1448696 3.62921739,10.6293913 2.99321739,10.6293913 L1.15147826,10.6293913 C0.515478261,10.6293913 0,11.1448696 0,11.7808696 C0,12.4168696 0.515478261,12.9318261 1.15147826,12.9318261 L2.99373913,12.9318261 C3.62921739,12.9318261 4.14469565,12.4168696 4.14469565,11.7808696 Z" id="Shape"></path>
                    <path d="M17.1798261,17.1808696 C17.6295652,16.7316522 18.3589565,16.7316522 18.8081739,17.1808696 L20.1109565,18.4836522 C20.5606957,18.9323478 20.5606957,19.6622609 20.1109565,20.1114783 C19.6612174,20.5606957 18.9323478,20.5606957 18.4826087,20.1114783 L17.1798261,18.8086957 C16.730087,18.3589565 16.730087,17.630087 17.1798261,17.1808696 Z" id="Shape"></path>
                    <path d="M6.3813913,6.3813913 C6.83113043,5.93165217 6.83113043,5.20278261 6.3813913,4.75304348 L5.0786087,3.45078261 C4.62886957,3.00104348 3.9,3.00104348 3.45026087,3.45078261 C3.00052174,3.9 3.00052174,4.6293913 3.45026087,5.0786087 L4.75304348,6.3813913 C5.20278261,6.83165217 5.93165217,6.83165217 6.3813913,6.3813913 Z" id="Shape"></path>
                </g>
            </g>
        </g>
    </g>
</svg>