<?xml version="1.0" encoding="UTF-8" standalone="no"?>
<!-- Created with Inkscape (http://www.inkscape.org/) -->

<svg
   xmlns:dc="http://purl.org/dc/elements/1.1/"
   xmlns:cc="http://creativecommons.org/ns#"
   xmlns:rdf="http://www.w3.org/1999/02/22-rdf-syntax-ns#"
   xmlns:svg="http://www.w3.org/2000/svg"
   xmlns="http://www.w3.org/2000/svg"
   xmlns:sodipodi="http://sodipodi.sourceforge.net/DTD/sodipodi-0.dtd"
   xmlns:inkscape="http://www.inkscape.org/namespaces/inkscape"
   version="1.1"
   id="svg3714"
   width="289.84579"
   height="201.13954"
   viewBox="0 0 289.84579 201.13954"
   sodipodi:docname="figure_1.svg"
   inkscape:version="0.92.1 r15371">
  <metadata
     id="metadata3720">
    <rdf:RDF>
      <cc:Work
         rdf:about="">
        <dc:format>image/svg+xml</dc:format>
        <dc:type
           rdf:resource="http://purl.org/dc/dcmitype/StillImage" />
        <dc:title></dc:title>
      </cc:Work>
    </rdf:RDF>
  </metadata>
  <defs
     id="defs3718" />
  <sodipodi:namedview
     pagecolor="#ffffff"
     bordercolor="#666666"
     borderopacity="1"
     objecttolerance="10"
     gridtolerance="10"
     guidetolerance="10"
     inkscape:pageopacity="0"
     inkscape:pageshadow="2"
     inkscape:window-width="1920"
     inkscape:window-height="1017"
     id="namedview3716"
     showgrid="false"
     inkscape:zoom="1.4142136"
     inkscape:cx="143.85926"
     inkscape:cy="65.988004"
     inkscape:window-x="-8"
     inkscape:window-y="-8"
     inkscape:window-maximized="1"
     inkscape:current-layer="svg3714"
     fit-margin-top="0"
     fit-margin-left="0"
     fit-margin-right="0"
     fit-margin-bottom="0" />
  <path
     style="opacity:1;fill:#fb6262;fill-opacity:1;stroke:#000000;stroke-width:0;stroke-linecap:butt;stroke-linejoin:miter;stroke-miterlimit:4;stroke-dasharray:none;stroke-opacity:1"
     d="m 289.84578,201.13207 h -43.68182 c 0,0 -2.07445,0.16185 -2.84062,-1.02175 -0.61279,-0.94666 -0.69351,-3.26632 -0.69351,-3.26632 l 0.132,-156.87494 c 0,0 0.13631,-1.20237 -0.65171,-1.88702 -0.88676,-0.77044 -2.59315,-0.68937 -2.59315,-0.68937 L 148.669,37.43117 116.06077,70.46349 H 5e-7 V 66.57891 H 113.42156 L 144.90917,35.09147 113.301,3.4833005 H 1.405e-4 V 5e-7 H 115.82074 L 149.19169,33.37095 h 93.86532 c 0,0 1.47013,0.0403 2.34563,0.71871 0.89143,0.69076 0.89758,1.98789 0.89758,1.98789 l -0.12149,159.70125 c 0,0 0.0305,1.33204 0.46528,1.75131 0.44907,0.43301 1.82502,0.41444 1.82502,0.41444 h 41.33444 z"
     id="path3724"
     inkscape:connector-curvature="0"
     sodipodi:nodetypes="ccsccscccccccccccccsccaccc" />
</svg>
