<?xml version="1.0" encoding="UTF-8" standalone="no"?>
<!-- Created with Inkscape (http://www.inkscape.org/) -->

<svg
   xmlns:dc="http://purl.org/dc/elements/1.1/"
   xmlns:cc="http://creativecommons.org/ns#"
   xmlns:rdf="http://www.w3.org/1999/02/22-rdf-syntax-ns#"
   xmlns:svg="http://www.w3.org/2000/svg"
   xmlns="http://www.w3.org/2000/svg"
   xmlns:sodipodi="http://sodipodi.sourceforge.net/DTD/sodipodi-0.dtd"
   xmlns:inkscape="http://www.inkscape.org/namespaces/inkscape"
   version="1.1"
   id="svg10"
   width="865"
   height="832"
   viewBox="0 0 865 832"
   sodipodi:docname="play.svg"
   inkscape:version="0.92.1 r15371">
  <metadata
     id="metadata16">
    <rdf:RDF>
      <cc:Work
         rdf:about="">
        <dc:format>image/svg+xml</dc:format>
        <dc:type
           rdf:resource="http://purl.org/dc/dcmitype/StillImage" />
        <dc:title></dc:title>
      </cc:Work>
    </rdf:RDF>
  </metadata>
  <defs
     id="defs14" />
  <sodipodi:namedview
     pagecolor="#ffffff"
     bordercolor="#666666"
     borderopacity="1"
     objecttolerance="10"
     gridtolerance="10"
     guidetolerance="10"
     inkscape:pageopacity="0"
     inkscape:pageshadow="2"
     inkscape:window-width="1920"
     inkscape:window-height="1017"
     id="namedview12"
     showgrid="false"
     showguides="false"
     inkscape:zoom="1.0192308"
     inkscape:cx="432.5"
     inkscape:cy="416"
     inkscape:window-x="-8"
     inkscape:window-y="-8"
     inkscape:window-maximized="1"
     inkscape:current-layer="svg10" />
  <g
     id="g20"
     transform="translate(453.28302,-26.490566)">
    <path
       style="fill:rgba(255,255,255, .04)"
       d="m -44.301887,858.88596 c -2.475,-0.20973 -10.125,-0.85865 -17,-1.44203 -137.502933,-11.66794 -262.387403,-88.55819 -333.335333,-205.23157 -9.35714,-15.38775 -25.33537,-48.20498 -32.00817,-65.74066 -10.75215,-28.25596 -19.2639,-62.7069 -23.348,-94.5 -2.27296,-17.69409 -2.58203,-76.84667 -0.48854,-93.5 7.91922,-62.99589 27.06413,-117.81606 59.02006,-169 C -327.17366,126.50101 -219.86741,54.9975 -98.139367,34.016263 -54.482417,26.491482 -5.5717468,25.42311 38.698113,31.027275 139.07341,43.733884 233.53434,91.897107 302.07778,165.31787 c 92.48816,99.06932 129.49032,232.5531 101.08329,364.65383 -19.76111,91.89474 -73.82295,176.83288 -150.72235,236.80431 -63.92439,49.85262 -141.80876,81.09402 -224.890297,90.2092 -13.4381,1.47435 -61.78811,2.75341 -71.85031,1.90075 z m 62.30487,-72.00906 c 95.410307,-9.34492 184.498657,-56.80184 244.455427,-130.22019 41.6951,-51.05656 66.84887,-110.12244 74.81714,-175.68501 2.30156,-18.93715 2.31097,-55.92852 0.0191,-75 C 327.85944,327.45868 292.72379,256.63389 235.56966,200.9193 142.0314,109.73698 5.0761732,75.736749 -122.30116,112.075 c -122.85277,35.04748 -218.00459,131.85488 -247.47931,251.78529 -12.84418,52.26196 -12.84418,106.96086 0,159.22282 16.68787,67.90166 55.82246,131.05027 109.97858,177.46431 76.9392,65.94008 174.964783,96.4021 277.804873,86.32948 z m -98.22366,-199.05202 c -3.78394,-1.88562 -6.14115,-3.95507 -8.19635,-7.19578 l -2.88486,-4.54896 0.01645,-132.05422 0.01645,-132.05422 2.24204,-3.95841 c 1.23311,-2.17712 4.17011,-5.31351 6.52664,-6.96974 3.5077,-2.46531 5.50807,-3.08047 11.0319,-3.3926 4.4771,-0.25298 7.91131,0.11366 10.20691,1.08969 3.57261,1.51898 182.626687,126.17471 186.806927,130.05319 8.08215,7.49872 8.10011,23.20386 0.0346,30.26241 -4.57975,4.00799 -181.396357,126.93602 -185.788367,129.16546 -6.19539,3.14486 -13.18316,3.0063 -20.01234,-0.39682 z"
       id="path22"
       inkscape:connector-curvature="0" />
  </g>
</svg>
