<?xml version="1.0" standalone="no"?>
<!DOCTYPE svg PUBLIC "-//W3C//DTD SVG 20010904//EN"
 "http://www.w3.org/TR/2001/REC-SVG-20010904/DTD/svg10.dtd">
<svg version="1.0" xmlns="http://www.w3.org/2000/svg"
 width="700.000000pt" height="700.000000pt" viewBox="0 0 700.000000 700.000000"
 preserveAspectRatio="xMidYMid meet">
<metadata>
Created by potrace 1.11, written by Peter Selinger 2001-2013
</metadata>
<g transform="translate(0.000000,700.000000) scale(0.100000,-0.100000)"
fill="#000000" stroke="none">
<path d="M1381 4420 l-184 -200 -397 0 -397 0 -176 -184 c-98 -101 -177 -187
-177 -190 0 -3 177 -6 394 -6 l394 0 179 185 179 185 485 -1 484 0 320 -344
c176 -189 323 -343 327 -342 11 3 1008 1081 1008 1089 0 5 -507 8 -1127 8
l-1128 0 -184 -200z"/>
<path d="M5981 4035 l-183 -185 -1131 -2 -1132 -3 325 -107 c179 -58 335 -109
348 -113 13 -4 22 -10 20 -15 -2 -5 -181 -193 -398 -419 l-395 -410 -571 -1
-570 0 -318 343 c-175 188 -324 342 -331 342 -11 0 -1015 -1068 -1015 -1080 0
-3 548 -5 1218 -5 l1217 1 180 193 180 194 555 5 c358 3 576 9 615 16 103 20
219 66 296 116 88 58 295 263 662 658 l259 277 391 0 392 1 183 189 184 190
-399 0 -400 0 -182 -185z"/>
</g>
</svg>
