<?xml version="1.0" encoding="UTF-8" standalone="no"?>
<!-- Created with Inkscape (http://www.inkscape.org/) -->

<svg
   xmlns:dc="http://purl.org/dc/elements/1.1/"
   xmlns:cc="http://creativecommons.org/ns#"
   xmlns:rdf="http://www.w3.org/1999/02/22-rdf-syntax-ns#"
   xmlns:svg="http://www.w3.org/2000/svg"
   xmlns="http://www.w3.org/2000/svg"
   xmlns:sodipodi="http://sodipodi.sourceforge.net/DTD/sodipodi-0.dtd"
   xmlns:inkscape="http://www.inkscape.org/namespaces/inkscape"
   version="1.1"
   id="svg10"
   width="23"
   height="25"
   viewBox="0 0 23 25"
   sodipodi:docname="share-icon.svg"
   inkscape:version="0.92.1 r15371">
  <metadata
     id="metadata16">
    <rdf:RDF>
      <cc:Work
         rdf:about="">
        <dc:format>image/svg+xml</dc:format>
        <dc:type
           rdf:resource="http://purl.org/dc/dcmitype/StillImage" />
        <dc:title></dc:title>
      </cc:Work>
    </rdf:RDF>
  </metadata>
  <defs
     id="defs14" />
  <sodipodi:namedview
     pagecolor="#ffffff"
     bordercolor="#666666"
     borderopacity="1"
     objecttolerance="10"
     gridtolerance="10"
     guidetolerance="10"
     inkscape:pageopacity="0"
     inkscape:pageshadow="2"
     inkscape:window-width="1920"
     inkscape:window-height="1017"
     id="namedview12"
     showgrid="false"
     inkscape:zoom="33.92"
     inkscape:cx="18.006925"
     inkscape:cy="15.957003"
     inkscape:window-x="-8"
     inkscape:window-y="-8"
     inkscape:window-maximized="1"
     inkscape:current-layer="g20" />
  <g
     id="g20"
     transform="translate(1.3266513,-1.6804245)">
    <path
       style="fill:#bea67c"
       d="M 12.353939,22.359389 C 10.506956,19.147534 8.5210057,17.837408 4.424172,17.779049 1.3558979,18.260607 -1.5086247,15.595235 -0.14066892,12.001536 0.88967313,10.187201 2.8430232,9.286273 4.7261446,9.9966814 7.7350272,11.131784 10.473981,9.9453962 12.083161,5.4256687 c 1.475006,-4.1428728 6.76107,-3.7600311 7.999961,-1.1874611 1.673446,3.4749267 -0.75593,6.3057744 -4.630789,5.7364172 -4.202405,-0.6174853 -7.367396,0.9470492 -7.9363075,3.9231172 -0.3610931,1.888938 0.1576341,2.745405 2.349162,3.878688 3.2356355,1.804097 6.6862765,-2.486801 9.8081615,1.668146 1.498329,2.799653 -0.108279,5.631486 -3.244173,5.631486 -1.675921,0 -2.742808,-0.399614 -4.075237,-2.716673 z m 6.847599,0.252071 c 0.775734,-2.02153 -0.521226,-4.077788 -3.057206,-4.048959 -2.412555,0.02742 -3.683551,2.01812 -2.552538,4.116745 1.051147,1.95043 4.825562,1.975759 5.609744,-0.06779 z M 5.7807044,15.750943 C 7.2594592,13.969151 6.563146,11.555619 4.2283094,10.936301 1.7767566,10.286024 -0.47991368,12.943844 0.86520434,15.376348 1.5353509,16.588237 4.1007706,17.775139 5.7807044,15.750943 Z M 19.40349,7.6055424 c 0.927352,-2.4166392 -0.648083,-4.3673349 -3.112216,-4.3673349 -2.464133,0 -3.754107,2.1029214 -2.758442,4.4410377 0.855796,2.0096627 5.124178,1.8715938 5.870658,-0.073703 z"
       id="path22"
       inkscape:connector-curvature="0"
       sodipodi:nodetypes="sccsssssccsssssssssssssss" />
  </g>
</svg>
