<svg xmlns="http://www.w3.org/2000/svg" width="60" height="37" viewBox="0 0 60 37">
    <g fill="#FFF" fill-rule="evenodd" opacity=".795">
        <text font-family="GothamPro-Medium, Gotham Pro" font-size="16" font-weight="400">
            <tspan x="10" y="36">360°</tspan>
        </text>
        <path fill-rule="nonzero" d="M38.583.336C51.286 1.348 59.994 4.463 60 8c-.04 2.694-5.13 5.204-13.558 6.689-.93.138-1.96.222-3.02.245h10.579V16H38.003v-4.267h4v2.41C50.616 12.95 56.071 10.59 56.2 8c-.098-3.848-11.769-6.96-26.196-6.987-14.427.026-26.099 3.14-26.197 6.987.134 3.071 7.731 5.763 18.758 6.646l-1.14 1.024C5.551 14.406-3.477 9.95 1.261 5.715 5.999 1.48 22.708-.927 38.583.336z"/>
    </g>
</svg>
