<?xml version="1.0" encoding="UTF-8"?>
<svg width="32px" height="32px" viewBox="0 0 32 32" version="1.1" xmlns="http://www.w3.org/2000/svg" xmlns:xlink="http://www.w3.org/1999/xlink">
    <!-- Generator: sketchtool 49 (51002) - http://www.bohemiancoding.com/sketch -->
    <title>F1B45A71-660A-4119-A9DC-AF1F0EE65507</title>
    <desc>Created with sketchtool.</desc>
    <defs></defs>
    <g id="Page-1" stroke="none" stroke-width="1" fill="none" fill-rule="evenodd">
        <g id="popup3_1160px" transform="translate(-644.000000, -305.000000)">
            <g id="Group" transform="translate(644.000000, 305.000000)">
                <g id="Group-2">
                    <circle id="Oval-4" fill="#EB373B" cx="16" cy="16" r="16"></circle>
                    <path d="M10.1384615,17.5 C10.0461538,17.4 10,17.25 10,17.15 C10,17.05 10.0461538,16.9 10.1384615,16.8 L10.7846154,16.1 C10.9692308,15.9 11.2461538,15.9 11.4307692,16.1 L11.4769231,16.15 L14.0153846,19.1 C14.1076923,19.2 14.2461538,19.2 14.3384615,19.1 L20.5230769,12.15 L20.5692308,12.15 C20.7538462,11.95 21.0307692,11.95 21.2153846,12.15 L21.8615385,12.85 C22.0461538,13.05 22.0461538,13.35 21.8615385,13.55 L14.4769231,21.85 C14.3846154,21.95 14.2923077,22 14.1538462,22 C14.0153846,22 13.9230769,21.95 13.8307692,21.85 L10.2307692,17.65 L10.1384615,17.5 Z" id="Shape" fill="#FFFFFF" fill-rule="nonzero"></path>
                </g>
            </g>
        </g>
    </g>
</svg>