<?xml version="1.0" encoding="UTF-8"?>
<svg width="16px" height="16px" viewBox="0 0 16 16" version="1.1" xmlns="http://www.w3.org/2000/svg" xmlns:xlink="http://www.w3.org/1999/xlink">
    <!-- Generator: sketchtool 49 (51002) - http://www.bohemiancoding.com/sketch -->
    <title>E1798307-8765-47BC-9FAC-2B18BBF0657F</title>
    <desc>Created with sketchtool.</desc>
    <defs></defs>
    <g id="Page-1" stroke="none" stroke-width="1" fill="none" fill-rule="evenodd">
        <g id="Card5" transform="translate(-682.000000, -1803.000000)" fill="#C0C0C0" fill-rule="nonzero">
            <g id="comment-black-oval-bubble-shape" transform="translate(682.000000, 1803.000000)">
                <path d="M14.9287779,3.6951572 C14.2144109,2.86307376 13.2440753,2.2058304 12.018021,1.72348638 C10.791998,1.24120165 9.45254825,1 8.00014073,1 C6.91675348,1 5.88102614,1.14241508 4.89295871,1.42730451 C3.90489128,1.71216431 3.05373662,2.0972037 2.3394322,2.58233378 C1.62500269,3.06752313 1.05668019,3.64435607 0.633995602,4.31280295 C0.211311019,4.98127947 0,5.6822699 0,6.41565569 C0,7.26181762 0.269259712,8.05468875 0.807998045,8.79370593 C1.34673638,9.5326342 2.08324456,10.1532735 3.0178666,10.655357 C2.95231859,10.880939 2.87494943,11.0953766 2.78563401,11.2983144 C2.69634987,11.5014004 2.61600977,11.6680305 2.54458246,11.7977601 C2.4730926,11.9274897 2.37645932,12.0714164 2.25433863,12.2293623 C2.13240557,12.3872785 2.0401505,12.4987505 1.97763596,12.5635412 C1.91518397,12.6284505 1.81251503,12.7358027 1.66956658,12.885094 C1.52680577,13.0347114 1.43448815,13.1319567 1.39286391,13.1771857 C1.38682824,13.1798236 1.36306084,13.205402 1.32140533,13.2532689 C1.27978109,13.3011358 1.25889079,13.325084 1.25889079,13.325084 L1.2053203,13.4011375 C1.17551722,13.4435508 1.16213242,13.4703148 1.16507207,13.4813701 C1.16807427,13.4924254 1.16213242,13.5208195 1.14724652,13.5658707 C1.13232934,13.6110997 1.13386172,13.644977 1.15168727,13.6676212 L1.15168727,13.6760386 C1.17561104,13.7776705 1.22768043,13.8594147 1.30798925,13.9213601 C1.38829807,13.9833647 1.47917713,14.0087949 1.58031371,13.9973247 C1.96731591,13.9522142 2.30656438,13.8904467 2.59818422,13.8113107 C4.15776399,13.4331772 5.52686049,12.7507704 6.70537992,11.7633493 C7.15170682,11.8084598 7.5832729,11.8311039 7.99995309,11.8311039 C9.45232934,11.8311039 10.7917166,11.5899023 12.0178646,11.10741 C13.2440127,10.6251253 14.2142546,9.96785231 14.9284965,9.13591706 C15.6428634,8.30418929 16,7.39720827 16,6.41562605 C16.0000313,5.43401419 15.642926,4.52709244 14.9287779,3.6951572 Z" id="Shape"></path>
            </g>
        </g>
    </g>
</svg>