<?xml version="1.0" encoding="UTF-8"?>
<svg width="16px" height="16px" viewBox="0 0 16 16" version="1.1" xmlns="http://www.w3.org/2000/svg" xmlns:xlink="http://www.w3.org/1999/xlink">
    <!-- Generator: sketchtool 49 (51002) - http://www.bohemiancoding.com/sketch -->
    <title>EC2C8F76-C198-4536-A50E-59C9BF6138F4</title>
    <desc>Created with sketchtool.</desc>
    <defs></defs>
    <g id="Page-1" stroke="none" stroke-width="1" fill="none" fill-rule="evenodd">
        <g id="Card5" transform="translate(-683.000000, -1683.000000)" fill="#06A913" fill-rule="nonzero">
            <g id="plus" transform="translate(683.000000, 1683.000000)">
                <path d="M8,0 C3.56363636,0 0,3.56363636 0,8 C0,12.4363636 3.56363636,16 8,16 C12.4363636,16 16,12.4363636 16,8 C16,3.56363636 12.4363636,0 8,0 Z M12.3636364,8.36363636 C12.3636364,8.58181818 12.2181818,8.72727273 12,8.72727273 L8.90909091,8.72727273 C8.8,8.72727273 8.72727273,8.8 8.72727273,8.90909091 L8.72727273,12 C8.72727273,12.2181818 8.58181818,12.3636364 8.36363636,12.3636364 L7.63636364,12.3636364 C7.41818182,12.3636364 7.27272727,12.2181818 7.27272727,12 L7.27272727,8.90909091 C7.27272727,8.8 7.2,8.72727273 7.09090909,8.72727273 L4,8.72727273 C3.78181818,8.72727273 3.63636364,8.58181818 3.63636364,8.36363636 L3.63636364,7.63636364 C3.63636364,7.41818182 3.78181818,7.27272727 4,7.27272727 L7.09090909,7.27272727 C7.2,7.27272727 7.27272727,7.2 7.27272727,7.09090909 L7.27272727,4 C7.27272727,3.78181818 7.41818182,3.63636364 7.63636364,3.63636364 L8.36363636,3.63636364 C8.58181818,3.63636364 8.72727273,3.78181818 8.72727273,4 L8.72727273,7.09090909 C8.72727273,7.2 8.8,7.27272727 8.90909091,7.27272727 L12,7.27272727 C12.2181818,7.27272727 12.3636364,7.41818182 12.3636364,7.63636364 L12.3636364,8.36363636 Z" id="Shape"></path>
            </g>
        </g>
    </g>
</svg>