<svg xmlns="http://www.w3.org/2000/svg" width="17" height="16" viewBox="0 0 17 16">
    <path fill="#EB373B" fill-rule="nonzero" d="M16.26 5.455l-4.681-.439a.809.809 0 0 1-.67-.491L9.23.498c-.268-.664-1.22-.664-1.489 0L6.08 4.525a.792.792 0 0 1-.671.491l-4.682.439A.8.8 0 0 0 .27 6.85l3.528 3.07a.79.79 0 0 1 .255.784l-1.06 4.305c-.16.678.577 1.236 1.194.877l3.904-2.272a.818.818 0 0 1 .818 0l3.904 2.272a.805.805 0 0 0 1.194-.877l-1.047-4.305a.79.79 0 0 1 .255-.784l3.528-3.07c.51-.465.215-1.329-.483-1.395z"/>
</svg>
