<?xml version="1.0" encoding="UTF-8" standalone="no"?>
<!-- Created with Inkscape (http://www.inkscape.org/) -->

<svg
   xmlns:dc="http://purl.org/dc/elements/1.1/"
   xmlns:cc="http://creativecommons.org/ns#"
   xmlns:rdf="http://www.w3.org/1999/02/22-rdf-syntax-ns#"
   xmlns:svg="http://www.w3.org/2000/svg"
   xmlns="http://www.w3.org/2000/svg"
   xmlns:sodipodi="http://sodipodi.sourceforge.net/DTD/sodipodi-0.dtd"
   xmlns:inkscape="http://www.inkscape.org/namespaces/inkscape"
   width="4.6020002mm"
   height="4.3390002mm"
   viewBox="0 0 4.6020002 4.3390002"
   version="1.1"
   id="svg8"
   inkscape:version="0.92.1 r15371"
   sodipodi:docname="star.svg">
  <defs
     id="defs2" />
  <sodipodi:namedview
     id="base"
     pagecolor="#ffffff"
     bordercolor="#666666"
     borderopacity="1.0"
     inkscape:pageopacity="0.0"
     inkscape:pageshadow="2"
     inkscape:zoom="3.959798"
     inkscape:cx="69.529041"
     inkscape:cy="83.712936"
     inkscape:document-units="mm"
     inkscape:current-layer="layer1"
     showgrid="false"
     inkscape:window-width="1920"
     inkscape:window-height="1017"
     inkscape:window-x="-8"
     inkscape:window-y="-8"
     inkscape:window-maximized="1" />
  <metadata
     id="metadata5">
    <rdf:RDF>
      <cc:Work
         rdf:about="">
        <dc:format>image/svg+xml</dc:format>
        <dc:type
           rdf:resource="http://purl.org/dc/dcmitype/StillImage" />
        <dc:title></dc:title>
      </cc:Work>
    </rdf:RDF>
  </metadata>
  <g
     inkscape:label="Layer 1"
     inkscape:groupmode="layer"
     id="layer1"
     transform="translate(0,-292.661)">
    <path
       style="color:#000000;font-style:normal;font-variant:normal;font-weight:normal;font-stretch:normal;font-size:medium;line-height:normal;font-family:sans-serif;font-variant-ligatures:normal;font-variant-position:normal;font-variant-caps:normal;font-variant-numeric:normal;font-variant-alternates:normal;font-feature-settings:normal;text-indent:0;text-align:start;text-decoration:none;text-decoration-line:none;text-decoration-style:solid;text-decoration-color:#000000;letter-spacing:normal;word-spacing:normal;text-transform:none;writing-mode:lr-tb;direction:ltr;text-orientation:mixed;dominant-baseline:auto;baseline-shift:baseline;text-anchor:start;white-space:normal;shape-padding:0;clip-rule:nonzero;display:inline;overflow:visible;visibility:visible;opacity:1;isolation:auto;mix-blend-mode:normal;color-interpolation:sRGB;color-interpolation-filters:linearRGB;solid-color:#000000;solid-opacity:1;vector-effect:none;fill:#eb373b;fill-opacity:1;fill-rule:nonzero;stroke:none;stroke-width:0.10583334;stroke-linecap:butt;stroke-linejoin:miter;stroke-miterlimit:4;stroke-dasharray:none;stroke-dashoffset:0;stroke-opacity:1;color-rendering:auto;image-rendering:auto;shape-rendering:auto;text-rendering:auto;enable-background:accumulate"
       d="m 2.3273346,292.67567 c -0.09992,0 -0.202351,0.0561 -0.246094,0.16407 l -0.439453,1.0664 c -0.02236,0.055 -0.07367,0.093 -0.132813,0.0977 l -1.23828099,0.11523 c -0.113189,0.0105 -0.198092,0.0888 -0.228516,0.18164 -0.03042,0.0929 -0.0089,0.20386 0.07617,0.2793 l 0.93359399,0.8125 0.002,0.002 c 0.04463,0.0381 0.06247,0.0972 0.04883,0.1543 l -0.27929699,1.13867 c -0.02608,0.11053 0.0205,0.21464 0.09961,0.27344 0.07911,0.0588 0.19508099,0.0757 0.29492099,0.0176 l 1.03125,-0.60157 c 0.05067,-0.0292 0.113399,-0.0292 0.164063,0 l 1.033203,0.60157 v -0.002 c 0.09899,0.0587 0.213377,0.0448 0.292969,-0.0137 0.07959,-0.0585 0.127933,-0.16339 0.101562,-0.27539 l -0.277343,-1.13868 c -0.01364,-0.0571 0.0042,-0.11614 0.04883,-0.15429 l 0.002,-0.002 0.933594,-0.8125 c 0.166463,-0.15182 0.06808,-0.43949 -0.158299,-0.4609 l -1.238282,-0.11523 c -0.0592,-0.005 -0.111654,-0.0429 -0.134765,-0.0977 l -0.44336,-1.06641 c -0.04359,-0.108 -0.14617,-0.16406 -0.246093,-0.16406 z m 0,0.10547 c 0.06154,0 0.121121,0.0319 0.148437,0.0996 l 0.443359,1.06641 h 0.002 c 0.03819,0.0905 0.122884,0.15295 0.220703,0.16211 l 1.238281,0.11523 c 0.142987,0.0135 0.20097,0.18315 0.09766,0.27734 l -0.933594,0.8125 c -0.07359,0.0639 -0.106653,0.16292 -0.08398,0.25782 v 0.002 l 0.277344,1.13867 c 0.01667,0.0708 -0.01181,0.12827 -0.06055,0.16406 -0.04874,0.0358 -0.11517,0.0469 -0.177735,0.01 l -1.033203,-0.60156 c -0.08326,-0.0481 -0.186269,-0.0481 -0.269531,0 l -1.033203,0.60156 c -0.06341,0.0369 -0.127168,0.0264 -0.17578096,-0.01 -0.04861,-0.0361 -0.07875,-0.0952 -0.0625,-0.16406 l 0.28124996,-1.13867 v -0.002 c 0.02267,-0.0949 -0.0104,-0.19392 -0.08398,-0.25782 l -0.93359299,-0.8125 c -0.05353,-0.0475 -0.06349,-0.1113 -0.04492,-0.16796 0.01856,-0.0567 0.06546,-0.10277 0.136718,-0.10938 l 1.23828199,-0.11523 c 0.09881,-0.008 0.183342,-0.0722 0.220703,-0.16407 l 0.439395,-1.06445 c 0.02743,-0.0677 0.0869,-0.0996 0.148438,-0.0996 z"
       id="path4485"
       inkscape:connector-curvature="0" />
  </g>
</svg>
