<?xml version="1.0" encoding="UTF-8"?>
<svg width="15px" height="16px" viewBox="0 0 15 16" version="1.1" xmlns="http://www.w3.org/2000/svg" xmlns:xlink="http://www.w3.org/1999/xlink">
    <!-- Generator: sketchtool 49 (51002) - http://www.bohemiancoding.com/sketch -->
    <title>5DB1F811-06FF-4BE7-8375-919EE7F0D899</title>
    <desc>Created with sketchtool.</desc>
    <defs></defs>
    <g id="Page-1" stroke="none" stroke-width="1" fill-rule="evenodd">
        <g id="Card5" transform="translate(-502.000000, -1833.000000)"  fill-rule="nonzero">
            <g id="Group-9" transform="translate(509.500000, 1841.000000) scale(1, -1) translate(-509.500000, -1841.000000) translate(502.000000, 1833.000000)">
                <path d="M2.49999003,6 L0.500009971,6 C0.225058329,6 0,6.22392457 0,6.49998654 L0,15.5000733 C0,15.7760156 0.224071231,16 0.500009971,16 L2.49999003,16 C2.77592877,16 3,15.7759857 3,15.5000733 L3,6.49998654 C3,6.22392457 2.77491176,6 2.49999003,6 Z" id="Shape"></path>
                <path d="M13.7864046,5.13944692 C13.7081227,5.12450272 10.0427428,5.13944692 10.0427428,5.13944692 L10.554716,3.56532411 C10.9079734,2.47813328 10.6792633,0.818114063 9.69908166,0.227949098 C9.37993448,0.0357718792 8.9340299,-0.060742771 8.57452042,0.0412448662 C8.36834698,0.0997107868 8.1871528,0.253544324 8.07915165,0.459649803 C7.95495324,0.696692406 7.96777729,0.973389585 7.92354741,1.23622405 C7.8113879,1.90287974 7.53187604,2.53673029 7.09902814,3.01248688 C6.34435775,3.84198852 4,6.23502749 4,6.23502749 L4,15 L12.1013366,14.9999997 C13.194492,15.0007207 13.9108939,13.6249363 13.3717314,12.5502973 C14.0144168,12.0864043 14.2342285,11.1092959 13.8578238,10.3590706 C14.5005383,9.89517764 14.7203209,8.91806922 14.3439162,8.16784396 C15.4528327,7.3674442 15.0820986,5.38641956 13.7864046,5.13944692 Z" id="Shape"></path>
            </g>
        </g>
    </g>
</svg>