<svg xmlns="http://www.w3.org/2000/svg" width="28" height="16" viewBox="0 0 28 16">
    <g fill="#EB373B" fill-rule="nonzero">
        <path d="M10.375 11.233c-1.293 0-2.337 1.068-2.337 2.386 0 1.313 1.044 2.381 2.337 2.381 1.292 0 2.337-1.068 2.337-2.381 0-1.318-1.045-2.386-2.337-2.386zm0 3.576a1.181 1.181 0 0 1-1.169-1.19c0-.659.523-1.191 1.169-1.191s1.168.532 1.168 1.19c0 .655-.522 1.191-1.168 1.191zM28 9.471v2.543c0 .635-.505 1.149-1.127 1.149h-1.206c-.218-1.524-1.507-2.695-3.062-2.695-1.552 0-2.84 1.171-3.058 2.695h-6.113c-.218-1.524-1.507-2.695-3.058-2.695-1.552 0-2.84 1.171-3.059 2.695h-1.51a1.138 1.138 0 0 1-1.127-1.149V9.471H28zm-5.392 1.762c-1.293 0-2.34 1.068-2.34 2.386 0 1.313 1.047 2.381 2.34 2.381 1.288 0 2.337-1.068 2.337-2.381 0-1.318-1.049-2.386-2.337-2.386zm0 3.576a1.181 1.181 0 0 1-1.169-1.19c0-.659.523-1.191 1.169-1.191.642 0 1.168.532 1.168 1.19 0 .655-.526 1.191-1.168 1.191zm4.948-7.898l-4.43-4.464a1.491 1.491 0 0 0-1.055-.445h-2.236V1.15C19.835.513 19.332 0 18.708 0H5.806C5.186 0 4.68.513 4.68 1.149v.18l-4.574.537L8.21 2.94 0 3.772l8.181 1.186L0 5.68l4.68.9v2.257H28v-.839c0-.41-.162-.8-.444-1.087zm-1.931.149h-4.287a.178.178 0 0 1-.177-.18V3.507c0-.1.08-.18.177-.18h.815c.045 0 .09.02.124.05l3.468 3.373c.116.11.038.31-.12.31z"/>
        <path d="M10.375 11.233c-1.293 0-2.337 1.068-2.337 2.386 0 1.313 1.044 2.381 2.337 2.381 1.292 0 2.337-1.068 2.337-2.381 0-1.318-1.045-2.386-2.337-2.386zm0 3.576a1.181 1.181 0 0 1-1.169-1.19c0-.659.523-1.191 1.169-1.191s1.168.532 1.168 1.19c0 .655-.522 1.191-1.168 1.191zM28 9.471v2.543c0 .635-.505 1.149-1.127 1.149h-1.206c-.218-1.524-1.507-2.695-3.062-2.695-1.552 0-2.84 1.171-3.058 2.695h-6.113c-.218-1.524-1.507-2.695-3.058-2.695-1.552 0-2.84 1.171-3.059 2.695h-1.51a1.138 1.138 0 0 1-1.127-1.149V9.471H28zm-5.392 1.762c-1.293 0-2.34 1.068-2.34 2.386 0 1.313 1.047 2.381 2.34 2.381 1.288 0 2.337-1.068 2.337-2.381 0-1.318-1.049-2.386-2.337-2.386zm0 3.576a1.181 1.181 0 0 1-1.169-1.19c0-.659.523-1.191 1.169-1.191.642 0 1.168.532 1.168 1.19 0 .655-.526 1.191-1.168 1.191zm4.948-7.898l-4.43-4.464a1.491 1.491 0 0 0-1.055-.445h-2.236V1.15C19.835.513 19.332 0 18.708 0H5.806C5.186 0 4.68.513 4.68 1.149v.18l-4.574.537L8.21 2.94 0 3.772l8.181 1.186L0 5.68l4.68.9v2.257H28v-.839c0-.41-.162-.8-.444-1.087zm-1.931.149h-4.287a.178.178 0 0 1-.177-.18V3.507c0-.1.08-.18.177-.18h.815c.045 0 .09.02.124.05l3.468 3.373c.116.11.038.31-.12.31z"/>
    </g>
</svg>
