<?xml version="1.0" encoding="UTF-8"?>
<svg width="87px" height="60px" viewBox="0 0 87 60" version="1.1" xmlns="http://www.w3.org/2000/svg" xmlns:xlink="http://www.w3.org/1999/xlink">
    <!-- Generator: sketchtool 49 (51002) - http://www.bohemiancoding.com/sketch -->
    <title>9B59CC69-2A91-49CD-A440-BCEF55572788</title>
    <desc>Created with sketchtool.</desc>
    <defs></defs>
    <g id="Page-1" stroke="none" stroke-width="1" fill="none" fill-rule="evenodd">
        <g id="Card4" transform="translate(-717.000000, -1870.000000)" fill-rule="nonzero">
            <g id="Group-19" transform="translate(717.000000, 1870.000000)">
                <g id="youtube-(1)">
                    <path d="M83.3025,5.78181818 C80.942625,1.57090909 78.3815625,0.796363636 73.167,0.501818182 C67.957875,0.147272727 54.8589375,0 43.510875,0 C32.1410625,0 19.0366875,0.147272727 13.833,0.496363636 C8.6293125,0.796363636 6.0628125,1.56545455 3.6811875,5.78181818 C1.250625,9.98727273 0,17.2309091 0,29.9836364 C0,29.9945455 0,30 0,30 C0,30.0109091 0,30.0163636 0,30.0163636 L0,30.0272727 C0,42.7254545 1.250625,50.0236364 3.6811875,54.1854545 C6.0628125,58.3963636 8.623875,59.16 13.8275625,59.5145455 C19.0366875,59.82 32.1410625,60 43.510875,60 C54.8589375,60 67.957875,59.82 73.1724375,59.52 C78.387,59.1654545 80.9480625,58.4018182 83.3079375,54.1909091 C85.76025,50.0290909 87,42.7309091 87,30.0327273 C87,30.0327273 87,30.0163636 87,30.0054545 C87,30.0054545 87,29.9945455 87,29.9890909 C87,17.2309091 85.76025,9.98727273 83.3025,5.78181818 Z" id="Shape" fill="#F44336"></path>
                    <polygon id="Shape" fill="#FAFAFA" points="32 47 32 14 59 30.5"></polygon>
                </g>
            </g>
        </g>
    </g>
</svg>