<?xml version="1.0" encoding="UTF-8"?>
<svg width="40px" height="40px" viewBox="0 0 40 40" version="1.1" xmlns="http://www.w3.org/2000/svg" xmlns:xlink="http://www.w3.org/1999/xlink">
    <!-- Generator: sketchtool 49 (51002) - http://www.bohemiancoding.com/sketch -->
    <title>5D95CC07-42FF-419D-8EBF-17925A52B9D6</title>
    <desc>Created with sketchtool.</desc>
    <defs></defs>
    <g id="Page-1" stroke="none" stroke-width="1" fill="none" fill-rule="evenodd">
        <g id="Card5" transform="translate(-740.000000, -780.000000)" fill="#818181">
            <g id="Group-5" transform="translate(740.000000, 780.000000)">
                <g id="360" transform="translate(0.000000, 7.000000)">
                    <path d="M32.6251667,11.0752101 C32.1825833,10.9497055 31.7213333,11.2036046 31.5948333,11.642045 C31.46825,12.0804853 31.7244167,12.5375862 32.1668333,12.6629257 C35.9705833,13.7407789 38.3333333,15.3041367 38.3333333,16.7428982 C38.3333333,17.7958156 37.0408333,18.9515312 34.7873333,19.9136229 C32.308,20.9722376 28.7908333,21.746733 24.87975,22.0955862 L21.4661667,22.0497606 C21.46225,22.0497606 21.4584167,22.049678 21.4545833,22.049678 C20.9995833,22.049678 20.62775,22.4120725 20.6215833,22.8642193 C20.6153333,23.3201642 20.9834167,23.6947789 21.4435,23.7009716 L24.9000833,23.7473752 C24.9039167,23.7473752 24.9076667,23.7474578 24.9114167,23.7474578 C24.9361667,23.7474578 24.9608333,23.7463844 24.9854167,23.7442376 C29.0851667,23.3820908 32.8003333,22.5602835 35.4469167,21.4303294 C39.2101667,19.8234578 40,17.9943936 40,16.7428982 C40,14.435678 37.3808333,12.4228156 32.6251667,11.0752101" id="Fill-1"></path>
                    <path d="M8.07324167,10.134578 C7.613075,10.134578 7.23990833,10.5042385 7.23990833,10.9602661 C7.23990833,11.4162936 7.613075,11.7859541 8.07324167,11.7859541 L11.4999917,11.7859541 L11.4999917,15.1987706 L8.07324167,15.1987706 C7.613075,15.1987706 7.23990833,15.5684312 7.23990833,16.0244587 C7.23990833,16.4804862 7.613075,16.8501468 8.07324167,16.8501468 L12.333325,16.8501468 C12.793575,16.8501468 13.1666583,16.4804862 13.1666583,16.0244587 L13.1666583,5.89607339 C13.1666583,5.44004587 12.793575,5.07038532 12.333325,5.07038532 L8.07324167,5.07038532 C7.613075,5.07038532 7.23990833,5.44004587 7.23990833,5.89607339 C7.23990833,6.35210092 7.613075,6.72176147 8.07324167,6.72176147 L11.4999917,6.72176147 L11.4999917,10.134578 L8.07324167,10.134578 Z" id="Fill-3"></path>
                    <path d="M16.57325,15.1987706 L20.01775,15.1987706 L20.01775,11.7859541 L16.57325,11.7859541 L16.57325,15.1987706 Z M15.7399167,16.8502294 L20.8510833,16.8502294 C21.31125,16.8502294 21.6844167,16.4805688 21.6844167,16.0245413 L21.6844167,10.9603486 C21.6844167,10.5043211 21.3113333,10.1346606 20.8510833,10.1346606 L16.57325,10.1346606 L16.57325,6.72176147 L20,6.72176147 C20.46025,6.72176147 20.8333333,6.35210092 20.8333333,5.89607339 C20.8333333,5.44004587 20.46025,5.07038532 20,5.07038532 L15.7399167,5.07038532 C15.2796667,5.07038532 14.9065833,5.44004587 14.9065833,5.89607339 L14.9065833,16.0245413 C14.9065833,16.4805688 15.2796667,16.8502294 15.7399167,16.8502294 Z" id="Fill-5"></path>
                    <path d="M25.0934167,15.1988532 L28.5379167,15.1988532 L28.5379167,6.72176147 L25.0934167,6.72176147 L25.0934167,15.1988532 Z M24.2600833,16.8502294 L29.37125,16.8502294 C29.8314167,16.8502294 30.2045833,16.4805688 30.2045833,16.0245413 L30.2045833,5.89607339 C30.2045833,5.44004587 29.8314167,5.07038532 29.37125,5.07038532 L24.2600833,5.07038532 C23.7999167,5.07038532 23.42675,5.44004587 23.42675,5.89607339 L23.42675,16.0245413 C23.42675,16.4805688 23.7999167,16.8502294 24.2600833,16.8502294 Z" id="Fill-7"></path>
                    <path d="M15.238075,18.9037239 C14.940825,18.5556138 14.4149917,18.5121 14.0636583,18.8066229 C13.7122417,19.1011459 13.6684083,19.6220725 13.965575,19.9702651 L15.8294083,22.1533018 C11.8964083,21.8562193 8.334325,21.1419165 5.71524167,20.1180633 C3.142325,19.1119624 1.66665833,17.8819349 1.66665833,16.7428982 C1.66665833,15.420311 3.64465833,13.9950083 6.95774167,12.9302009 C7.395575,12.7895037 7.635325,12.3238156 7.493325,11.8899991 C7.35140833,11.4562651 6.88124167,11.2187147 6.443575,11.3593294 C4.51615833,11.9787606 2.98774167,12.7156872 1.90065833,13.5495495 C0.639491667,14.517256 -8.33333333e-06,15.5915587 -8.33333333e-06,16.7428982 C-8.33333333e-06,18.6505679 1.764825,20.3487606 5.10349167,21.6540908 C7.81715833,22.7150174 11.4557417,23.4597881 15.4556583,23.7808982 L13.7936583,25.6059991 C13.485325,25.9444486 13.512325,26.4666963 13.854075,26.7721183 C14.0134083,26.9146321 14.213075,26.9848156 14.412075,26.9848156 C14.6396583,26.9848156 14.8664917,26.8929165 15.0309917,26.712256 L18.0632417,23.3826688 C18.2014083,23.2309899 18.2779083,23.0338982 18.2779083,22.8295404 L18.2779083,22.7664578 C18.2779083,22.5711826 18.208075,22.3822651 18.080825,22.2332284 L15.238075,18.9037239 Z" id="Fill-8"></path>
                    <path d="M32.6178333,3.37656881 L34.35775,3.37656881 L34.35775,1.65137615 L32.6178333,1.65137615 L32.6178333,3.37656881 Z M31.7845,5.02794495 L35.1910833,5.02794495 C35.65125,5.02794495 36.0244167,4.6582844 36.0244167,4.20225688 L36.0244167,0.825688073 C36.0244167,0.36966055 35.65125,-5.68434189e-14 35.1910833,-5.68434189e-14 L31.7845,-5.68434189e-14 C31.3243333,-5.68434189e-14 30.9511667,0.36966055 30.9511667,0.825688073 L30.9511667,4.20225688 C30.9511667,4.6582844 31.3243333,5.02794495 31.7845,5.02794495 Z" id="Fill-9"></path>
                </g>
            </g>
        </g>
    </g>
</svg>