<?xml version="1.0" encoding="UTF-8"?>
<svg width="32px" height="32px" viewBox="0 0 32 32" version="1.1" xmlns="http://www.w3.org/2000/svg" xmlns:xlink="http://www.w3.org/1999/xlink">
    <!-- Generator: sketchtool 49 (51002) - http://www.bohemiancoding.com/sketch -->
    <title>06D33A95-75FF-4847-A72D-63D4CD4E34EC</title>
    <desc>Created with sketchtool.</desc>
    <defs></defs>
    <g id="Page-1" stroke="none" stroke-width="1" fill="none" fill-rule="evenodd">
        <g id="Card5" transform="translate(-329.000000, -1765.000000)" fill="#D7D8D7" fill-rule="nonzero">
            <g id="Group-15" transform="translate(329.000000, 1765.000000)">
                <g id="arrow-point-to-right-copy" transform="translate(13.500000, 15.500000) scale(-1, 1) translate(-13.500000, -15.500000) translate(5.000000, 0.000000)">
                    <path d="M16.3883631,17.0346594 L3.56510961,30.3637531 C2.74939579,31.2120823 1.42685566,31.2120823 0.611537857,30.3637531 C-0.203845952,29.5161786 -0.203845952,28.1414942 0.611537857,27.2939883 L11.9581375,15.499777 L0.611867865,3.70597736 C-0.203515944,2.85805981 -0.203515944,1.48351267 0.611867865,0.63593816 C1.42725167,-0.211979387 2.7497258,-0.211979387 3.56543962,0.63593816 L16.3886931,13.9652377 C16.7963851,14.3892308 17,14.9443324 17,15.4997084 C17,16.0553589 16.795989,16.6108722 16.3883631,17.0346594 Z" id="Shape"></path>
                </g>
            </g>
        </g>
    </g>
</svg>