<svg xmlns="http://www.w3.org/2000/svg" width="34" height="14" viewBox="0 0 34 14">
    <g fill="#EB373B" fill-rule="nonzero">
        <path d="M30.908 11.935A2.957 2.957 0 0 1 28.086 14a2.955 2.955 0 0 1-2.874-2.268 2.977 2.977 0 0 1-.082-.68 2.952 2.952 0 0 1 2.957-2.947 2.952 2.952 0 0 1 2.956 2.948c0 .136-.012.27-.03.4a3.05 3.05 0 0 1-.042.241c-.02.08-.039.162-.063.24zM10.283 11.669A2.955 2.955 0 0 1 7.392 14a2.952 2.952 0 0 1-2.956-2.92l-.001-.027c0-.072.006-.142.01-.212a2.95 2.95 0 0 1 2.946-2.736 2.952 2.952 0 0 1 2.957 2.948c0 .048-.005.094-.007.141a2.901 2.901 0 0 1-.058.475z"/>
        <path d="M1.76 1.503c.395.037.729.235.942.51a1.137 1.137 0 0 1 .24.789l-.138 1.466c.113-.11.209-.175.209-.175 0-2.046.717-3.41.717-3.41L3.826.51A1 1 0 0 1 4.7 0h7.337c3.862 0 8.34.853 8.887 1.433.547.58 3.212 3.138 3.212 3.138l7.827 1.091S33.09 7.3 33.33 7.743c.24.443.41.478.41.478.957 2.33-.977 3.203-1.693 3.44a3.931 3.931 0 1 0-7.843-.37c0 .17.014.336.035.498a525.63 525.63 0 0 1-12.964-.314c.002-.061.009-.121.009-.183a3.932 3.932 0 0 0-7.843-.364c-1.412-.45-1.548-2.105-1.396-3.561a1.321 1.321 0 0 1-.572.2c-.093.01-.188.013-.285.004C.473 7.504-.057 6.922.005 6.272l.35-3.713c.063-.65.692-1.123 1.405-1.056z"/>
    </g>
</svg>
