<?xml version="1.0" encoding="UTF-8"?>
<svg width="32px" height="32px" viewBox="0 0 32 32" version="1.1" xmlns="http://www.w3.org/2000/svg" xmlns:xlink="http://www.w3.org/1999/xlink">
    <!-- Generator: sketchtool 49 (51002) - http://www.bohemiancoding.com/sketch -->
    <title>87AA1F9A-A322-487E-97F8-2B423C2202FB</title>
    <desc>Created with sketchtool.</desc>
    <defs></defs>
    <g id="Page-1" stroke="none" stroke-width="1" fill="none" fill-rule="evenodd">
        <g id="popup2_1160px" transform="translate(-654.000000, -362.000000)">
            <g id="Group" transform="translate(654.000000, 362.000000)">
                <g id="Group-2">
                    <circle id="Oval-4" fill="#EB373B" cx="16" cy="16" r="16"></circle>
                    <path d="M22.4491589,14.0238931 C22.4513047,14.0632214 22.4484785,14.1032443 22.4387963,14.143 L21.5752449,17.6697176 C21.5317009,17.8473893 21.3757383,17.9723206 21.1964336,17.9732824 L16.0151252,18 C16.0144449,18 16.0138168,18 16.0131364,18 L10.8317757,18 C10.651529,18 10.4944673,17.8746412 10.4509234,17.6960611 L9.58737196,14.1559847 C9.57742804,14.1151603 9.57454953,14.0740153 9.57706168,14.0336718 C9.24299813,13.9262137 9,13.6070458 9,13.230916 C9,12.7668321 9.36975701,12.389313 9.82429907,12.389313 C10.2788411,12.389313 10.6485981,12.7668321 10.6485981,13.230916 C10.6485981,13.4922672 10.5313121,13.7260992 10.3476636,13.8805802 L11.4288299,14.9927786 C11.7020785,15.2739008 12.0812561,15.4350611 12.4691738,15.4350611 C12.9278505,15.4350611 13.3651738,15.2126641 13.6405682,14.8400611 L15.4173907,12.4363359 C15.2681271,12.2840458 15.1757009,12.0736183 15.1757009,11.8416031 C15.1757009,11.3775191 15.5454579,11 16,11 C16.4545421,11 16.8242991,11.3775191 16.8242991,11.8416031 C16.8242991,12.0666718 16.7367925,12.2709542 16.5953271,12.4221221 C16.5957981,12.4227634 16.5963738,12.4232977 16.5968449,12.4239924 L18.3607925,14.8343435 C18.6360822,15.2105267 19.0749757,15.4351145 19.5349607,15.4351145 C19.9264374,15.4351145 20.294572,15.279458 20.5713794,14.9967863 L21.6593495,13.8859771 C21.471828,13.7315496 21.3514019,13.4954733 21.3514019,13.230916 C21.3514019,12.7668321 21.7211589,12.389313 22.1757009,12.389313 C22.630243,12.389313 23,12.7668321 23,13.230916 C23,13.597 22.7694579,13.9083664 22.4491589,14.0238931 Z M21,19.4545455 C21,19.2035152 20.8393301,19 20.6411483,19 L11.3588517,19 C11.1606699,19 11,19.2035152 11,19.4545455 L11,20.5454545 C11,20.7964848 11.1606699,21 11.3588517,21 L20.6411483,21 C20.8393301,21 21,20.7964848 21,20.5454545 L21,19.4545455 Z" id="Shape" fill="#FFFFFF" fill-rule="nonzero"></path>
                </g>
            </g>
        </g>
    </g>
</svg>