<?xml version="1.0" encoding="UTF-8"?>
<svg width="16px" height="16px" viewBox="0 0 16 16" version="1.1" xmlns="http://www.w3.org/2000/svg" xmlns:xlink="http://www.w3.org/1999/xlink">
    <!-- Generator: sketchtool 49 (51002) - http://www.bohemiancoding.com/sketch -->
    <title>2CFB94EA-C095-4976-8F3D-A7BD2BB8DC85</title>
    <desc>Created with sketchtool.</desc>
    <defs></defs>
    <g id="Page-1" stroke="none" stroke-width="1" fill="none" fill-rule="evenodd">
        <g id="Card5" transform="translate(-682.000000, -1742.000000)" fill="#D20005" fill-rule="nonzero">
            <g id="minus-sign-inside-a-black-circle" transform="translate(682.000000, 1742.000000)">
                <path d="M14.9273668,3.98429312 C14.2119617,2.75868234 13.2415605,1.78828551 12.0159076,1.07292023 C10.7900358,0.35759143 9.45182564,0 8.0002554,0 C6.5488311,0 5.21021955,0.35759143 3.98456669,1.07292023 C2.75884086,1.78817606 1.78843961,2.75857288 1.07303458,3.98429312 C0.35759306,5.21008633 0,6.54869178 0,8 C0,9.45138119 0.357702517,10.7897677 1.07292512,12.0156339 C1.78829367,13.2412447 2.75869492,14.2116415 3.98442075,14.9270798 C5.21021955,15.6423721 6.54872164,16 8.00010946,16 C9.45149727,16 10.7901453,15.6423721 12.0158711,14.9270798 C13.241524,14.2118969 14.2118888,13.2412447 14.9272208,12.0156339 C15.6424434,10.7898772 16,9.45130822 16,8 C16.0000365,6.54854584 15.6424434,5.20990391 14.9273668,3.98429312 Z M12.6669525,8.66665755 C12.6669525,8.84718631 12.6008775,9.00363484 12.4689099,9.13538289 C12.3370518,9.2672404 12.1807485,9.33342455 12.0001824,9.33342455 L4.00003649,9.33342455 C3.8195069,9.33342455 3.66331305,9.26727688 3.531309,9.13538289 C3.39937792,9.00367132 3.33341238,8.84722279 3.33341238,8.66665755 L3.33341238,7.333233 C3.33341238,7.15270424 3.39941441,6.99643813 3.531309,6.86450766 C3.66327657,6.73254069 3.81947041,6.66653897 4.00003649,6.66653897 L12.0001824,6.66653897 C12.180712,6.66653897 12.3370153,6.73254069 12.4689099,6.86450766 C12.6008775,6.99640165 12.6669525,7.15266775 12.6669525,7.333233 L12.6669525,8.66665755 Z" id="Shape"></path>
            </g>
        </g>
    </g>
</svg>