<svg xmlns="http://www.w3.org/2000/svg" width="24" height="24" viewBox="0 0 24 24" fill="black">
    <g fill-rule="nonzero">
        <path d="M12 6c-3.308 0-6 2.692-6 6s2.692 6 6 6 6-2.691 6-6-2.692-6-6-6zM11.78 4.145a1.151 1.151 0 0 1-1.15-1.151V1.15a1.151 1.151 0 1 1 2.302 0v1.843c0 .635-.516 1.15-1.151 1.15zM11.78 19.417c-.635 0-1.15.515-1.15 1.151v1.842a1.152 1.152 0 1 0 2.302 0v-1.842c0-.636-.516-1.151-1.151-1.151zM17.18 6.381a1.152 1.152 0 0 1 0-1.628l1.303-1.303A1.152 1.152 0 0 1 20.11 5.08L18.808 6.38c-.449.45-1.178.45-1.628 0zM6.381 17.18a1.15 1.15 0 0 0-1.628 0L3.45 18.484a1.152 1.152 0 0 0 1.629 1.628l1.302-1.303a1.15 1.15 0 0 0 0-1.627zM19.417 11.78c0-.635.515-1.15 1.151-1.15h1.842a1.151 1.151 0 1 1 0 2.302h-1.842a1.151 1.151 0 0 1-1.151-1.151zM4.145 11.78c0-.635-.516-1.15-1.152-1.15H1.151a1.151 1.151 0 1 0 0 2.302h1.843a1.15 1.15 0 0 0 1.15-1.151zM17.18 17.18c.45-.448 1.179-.448 1.628 0l1.303 1.304a1.15 1.15 0 1 1-1.628 1.627L17.18 18.81a1.15 1.15 0 0 1 0-1.628zM6.381 6.381c.45-.45.45-1.178 0-1.628L5.08 3.451A1.151 1.151 0 0 0 3.45 5.079L4.753 6.38c.45.45 1.179.45 1.628 0z"/>
    </g>
</svg>
